<?xml version="1.0" encoding="UTF-8" standalone="no"?>
<!-- Created with Inkscape (http://www.inkscape.org/) -->

<svg
   xmlns:dc="http://purl.org/dc/elements/1.1/"
   xmlns:cc="http://creativecommons.org/ns#"
   xmlns:rdf="http://www.w3.org/1999/02/22-rdf-syntax-ns#"
   xmlns:svg="http://www.w3.org/2000/svg"
   xmlns="http://www.w3.org/2000/svg"
   xmlns:sodipodi="http://sodipodi.sourceforge.net/DTD/sodipodi-0.dtd"
   xmlns:inkscape="http://www.inkscape.org/namespaces/inkscape"
   width="245mm"
   height="43mm"
   viewBox="0 0 245 43"
   version="1.1"
   id="svg8"
   inkscape:version="0.92.4 (5da689c313, 2019-01-14)"
   sodipodi:docname="budgie-remix-wordmark.svg">
  <defs
     id="defs2" />
  <sodipodi:namedview
     id="base"
     pagecolor="#ffffff"
     bordercolor="#666666"
     borderopacity="1.0"
     inkscape:pageopacity="0.0"
     inkscape:pageshadow="2"
     inkscape:zoom="0.49497475"
     inkscape:cx="235.18084"
     inkscape:cy="166.63544"
     inkscape:document-units="mm"
     inkscape:current-layer="g6018"
     showgrid="false"
     inkscape:pagecheckerboard="true"
     inkscape:window-width="1600"
     inkscape:window-height="821"
     inkscape:window-x="0"
     inkscape:window-y="24"
     inkscape:window-maximized="1" />
  <metadata
     id="metadata5">
    <rdf:RDF>
      <cc:Work
         rdf:about="">
        <dc:format>image/svg+xml</dc:format>
        <dc:type
           rdf:resource="http://purl.org/dc/dcmitype/StillImage" />
        <dc:title></dc:title>
      </cc:Work>
    </rdf:RDF>
  </metadata>
  <g
     inkscape:label="Capa 1"
     inkscape:groupmode="layer"
     id="layer1"
     transform="translate(0,-254)">
    <g
       style="stroke-width:17.68889999"
       id="g5267"
       transform="matrix(0.05652738,0,0,0.05653788,21.393912,273.88934)">
      <g
         style="stroke-width:17.68889999"
         id="g6018"
         transform="matrix(1.0084821,0,0,1.0037248,43.974771,5.3083105)">
        <g
           id="g932"
           transform="translate(-84.39076,9.4194439)">
          <g
             style="stroke-width:15.26491547"
             transform="matrix(1.1587941,0,0,1.1587949,237.25378,-5.6557581)"
             id="g1346">
            <path
               inkscape:connector-curvature="0"
               id="path5663"
               d="m 269.01198,183.9139 c -14.3554,-0.94717 -32.03154,-7.26928 -45.6419,-16.32446 -6.8834,-4.57963 -12.01222,-8.83834 -17.70957,-14.70507 -2.59774,-2.67496 -5.04807,-4.86358 -5.44519,-4.86358 -0.95286,0 -2.20679,-1.4561 -5.15484,-5.98594 -12.56445,-19.30605 -18.87762,-34.86746 -21.47736,-52.939863 -0.87285,-6.06774 -0.96722,-8.914905 -0.29549,-8.914905 0.25694,0 1.33327,1.878575 2.39186,4.174615 2.40411,5.21445 5.09394,9.25971 8.47022,12.73844 2.61516,2.69452 8.05084,7.030723 8.8134,7.030723 0.22207,0 -1.012,-2.99246 -2.74237,-6.649883 -3.37813,-7.14027 -6.50997,-16.096915 -7.87855,-22.5316 -1.06662,-5.015029 -1.24311,-26.05612 -0.26091,-31.10538 0.78625,-4.041835 2.78721,-11.073245 3.82761,-13.450309 l 0.80332,-1.835386 0.35765,1.496487 c 0.19671,0.823068 0.38379,3.460624 0.41573,5.861237 0.0518,3.895958 0.55587,5.494499 1.17965,3.741216 0.12202,-0.342945 0.36533,0.498829 0.54071,1.870608 0.87641,6.855519 1.47258,9.704265 2.53518,12.114092 1.27279,2.886512 5.03399,8.587301 5.66561,8.587301 0.21791,0 0.0632,-1.066246 -0.34392,-2.369437 -2.04329,-6.541499 -2.74957,-11.757293 -2.75255,-20.327271 -0.003,-9.270468 0.57284,-13.178801 3.06568,-20.799169 3.00731,-9.1930839 7.33185,-16.4487029 18.82123,-31.57785 11.61002,-15.288018 15.02341,-21.014483 17.9476,-30.109753 2.37351,-7.382417 2.85339,-13.106098 1.66828,-19.89783 -0.40819,-2.339257 0.35668,-2.071262 4.04671,1.41791 1.76773,1.671511 3.30765,2.943978 3.42203,2.827706 0.18457,-0.187589 -0.79532,-17.508929 -1.49593,-26.443496 -0.21775,-2.776883 -0.13526,-3.367093 0.47062,-3.367093 0.74342,0 4.19572,6.510442 5.90636,11.138351 0.58761,1.589668 1.0143,2.183399 1.25473,1.745901 0.20039,-0.364624 0.61105,-5.825826 0.91259,-12.136012 0.62275,-13.03169 0.75493,-14.05847 1.70653,-13.25575 0.81643,0.6887 2.91559,5.4044 5.01248,11.26044 0.88416,2.4692 1.61858,4.137428 1.63205,3.707167 0.15149,-4.836177 3.59298,-40.931817 3.99078,-41.856697 0.69471,-1.6152 0.78383,-1.44304 3.87308,7.48308 2.81996,8.14801 5.06507,17.0443 6.03967,23.93225 l 0.67051,4.73888 0.86038,-4.48946 c 1.96884,-10.27348 1.48288,-25.00965 -1.19192,-36.14315 -1.75407,-7.30112 -3.80241,-12.79296 -7.77585,-20.84803 -1.65786,-3.36086 -2.75593,-6.11065 -2.44016,-6.11065 1.8342,0 11.70348,7.27453 19.12348,14.0957 5.50335,5.05919 12.43737,12.58352 16.20072,17.57992 5.80931,7.71274 12.47778,19.38577 16.37061,28.65649 2.09744,4.99504 7.21157,20.093981 8.09991,23.914186 0.4235,1.821219 0.75164,2.457834 1.01773,1.974544 0.60832,-1.10485 1.84126,-9.132542 2.21002,-14.3895 0.18284,-2.60638 0.49896,-5.05459 0.70251,-5.44047 0.8042,-1.52459 11.56269,18.955812 15.9147,30.296051 7.90866,20.607937 12.70223,40.531678 14.06257,58.4488181 0.54848,7.224174 0.35241,28.7174659 -0.29124,31.9250399 -0.47121,2.348232 1.28868,-2.074474 2.77894,-6.983602 3.21393,-10.587246 3.92144,-15.5838739 4.16478,-29.4124796 0.12293,-6.9859464 0.30899,-12.7886024 0.41347,-12.8947924 0.46405,-0.471673 1.35953,0.73036 3.45521,4.63803 6.62426,12.3518371 13.40561,32.776491 15.92048,47.950646 1.24111,7.488592 1.2428,8.297278 0.0198,9.422332 -0.88775,0.816592 -0.98154,1.536377 -0.98154,7.532573 0,19.78104 -3.75124,40.160431 -10.97591,59.628924 -2.75683,7.42888 -2.41375,8.06842 1.82937,3.41014 2.78989,-3.06289 5.50577,-7.38146 8.00027,-12.721373 l 1.39164,-2.9791 0.14107,5.736533 c 0.27583,11.21604 -3.47613,22.98331 -11.054,34.6686 -13.15454,20.28468 -32.29585,34.87096 -56.32298,42.91989 -14.78671,4.95344 -27.5843,6.40214 -45.88728,5.19452 z"
               style="fill:#ffffff;stroke-width:7.55284357"
               sodipodi:nodetypes="cscscssccscccccccccssccssccscsscccccccsccccsscccscccscscsccscsscccssscc" />
            <ellipse
               style="opacity:1;fill:none;fill-opacity:0.94174757;stroke:#ffffff;stroke-width:30.34470558;stroke-linecap:round;stroke-linejoin:bevel;stroke-miterlimit:4;stroke-dasharray:none;stroke-opacity:0.93689324;paint-order:normal"
               id="path505"
               cx="276.54385"
               cy="17.940874"
               rx="271.38367"
               ry="272.66965" />
          </g>
          <flowRoot
             transform="matrix(21.759916,0,0,20.674371,-5716.5911,-563.65393)"
             style="font-style:normal;font-weight:normal;font-size:40px;line-height:1.25;font-family:sans-serif;letter-spacing:0px;word-spacing:0px;fill:#ffffff;fill-opacity:1;stroke:none;stroke-width:3.87951922"
             id="flowRoot1348"
             xml:space="preserve"><flowRegion
               style="fill:#ffffff;fill-opacity:1;stroke-width:3.87951922"
               id="flowRegion1350"><rect
                 style="fill:#ffffff;fill-opacity:1;stroke-width:3.87951922"
                 y="4.9358869"
                 x="304.05591"
                 height="144.45181"
                 width="535.38086"
                 id="rect1352" /></flowRegion><flowPara
               style="font-style:italic;font-variant:normal;font-weight:bold;font-stretch:normal;font-family:'Russo One';-inkscape-font-specification:'Russo One Bold Italic';fill:#ffffff;fill-opacity:1;stroke-width:0.8980633"
               id="flowPara1354">Brann</flowPara></flowRoot>        </g>
      </g>
    </g>
    <g
       style="stroke-width:17.68889999"
       id="g4496"
       transform="matrix(0.05652738,0,0,0.05653788,10.838369,274.12378)" />
  </g>
</svg>
